<svg width="112" height="110" viewBox="0 0 112 110" fill="none" xmlns="http://www.w3.org/2000/svg">
<rect x="0.840088" y="0.870193" width="110.453" height="108.975" rx="20" fill="#ADADAD" fill-opacity="0.55"/>
<path fill-rule="evenodd" clip-rule="evenodd" d="M72.6352 44.4603C72.6352 53.4881 65.2175 60.8066 56.0673 60.8066C46.917 60.8066 39.4993 53.4881 39.4993 44.4603C39.4993 35.4325 46.917 28.114 56.0673 28.114C65.2175 28.114 72.6352 35.4325 72.6352 44.4603ZM67.1126 44.4603C67.1126 50.4788 62.1674 55.3578 56.0673 55.3578C49.9671 55.3578 45.0219 50.4788 45.0219 44.4603C45.0219 38.4418 49.9671 33.5628 56.0673 33.5628C62.1674 33.5628 67.1126 38.4418 67.1126 44.4603Z" fill="#814DFF"/>
<path d="M56.0673 68.9797C38.1894 68.9797 22.957 79.4098 17.1545 94.0224C18.568 95.4072 20.0571 96.7171 21.615 97.9455C25.9357 84.5297 39.4902 74.4285 56.0673 74.4285C72.6443 74.4285 86.1988 84.5297 90.5195 97.9456C92.0774 96.7172 93.5665 95.4073 94.98 94.0224C89.1776 79.4098 73.9452 68.9797 56.0673 68.9797Z" fill="#814DFF"/>
</svg>
